<svg width="109" height="50" viewBox="0 0 109 50" fill="none" xmlns="http://www.w3.org/2000/svg">
<g clip-path="url(#clip0)">
<path d="M11.9816 28.0553L1.35483 22.7465C1.22403 22.6824 1.114 22.5826 1.03737 22.4587C0.960742 22.3348 0.920632 22.1917 0.92165 22.0461V11.9815C0.92105 11.8347 0.961233 11.6907 1.03772 11.5653C1.1142 11.44 1.22399 11.3384 1.35483 11.2719L21.8802 1.00458C22.0012 0.937855 22.1377 0.904334 22.2759 0.907422C22.4141 0.91051 22.549 0.950098 22.6669 1.02217C22.7849 1.09424 22.8816 1.19622 22.9474 1.31777C23.0132 1.43932 23.0456 1.57611 23.0415 1.71426V10.9954C23.0421 11.1422 23.0019 11.2863 22.9254 11.4116C22.8489 11.5369 22.7391 11.6385 22.6083 11.705L2.33179 21.8433C2.20214 21.9099 2.09337 22.0109 2.01742 22.1353C1.94147 22.2597 1.90129 22.4026 1.90129 22.5484C1.90129 22.6941 1.94147 22.837 2.01742 22.9614C2.09337 23.0858 2.20214 23.1868 2.33179 23.2534L11.9816 28.0553Z" stroke="#0043E0" stroke-width="2" stroke-miterlimit="10"/>
<path d="M23.0414 28.0553V32.5069C23.0453 32.826 22.9613 33.1401 22.7988 33.4148C22.6363 33.6895 22.4014 33.9142 22.1198 34.0645L2.32255 43.9262C2.19255 43.9914 2.08324 44.0914 2.00684 44.2151C1.93044 44.3388 1.88998 44.4813 1.88998 44.6267C1.88998 44.7721 1.93044 44.9146 2.00684 45.0383C2.08324 45.162 2.19255 45.262 2.32255 45.3272L1.84329 45.106C1.56244 44.9572 1.32791 44.7341 1.16535 44.461C1.0028 44.1879 0.918485 43.8754 0.921633 43.5576V34.6543C0.917818 34.3352 1.00176 34.0211 1.1643 33.7465C1.32683 33.4718 1.56171 33.247 1.84329 33.0967L22.1198 22.9585C22.2114 22.9211 22.2897 22.8574 22.3449 22.7753C22.4 22.6932 22.4295 22.5966 22.4295 22.4977C22.4295 22.3988 22.4 22.3021 22.3449 22.22C22.2897 22.138 22.2114 22.0742 22.1198 22.0368L11.9815 17.0046L22.0645 22.0553C22.3453 22.204 22.5799 22.4271 22.7424 22.7002C22.905 22.9733 22.9893 23.2859 22.9862 23.6037V28.0553" stroke="#0043E0" stroke-width="2" stroke-miterlimit="10"/>
<path d="M0.921594 39.106V43.5576C0.918445 43.8754 1.00276 44.1879 1.16531 44.461C1.32787 44.7341 1.5624 44.9572 1.84325 45.106L9.41929 48.894C9.68627 49.0365 9.98578 49.107 10.2883 49.0986C10.5908 49.0901 10.8859 49.003 11.1446 48.8458C11.4032 48.6886 11.6164 48.4667 11.7631 48.202C11.9099 47.9373 11.9851 47.639 11.9815 47.3364V39.106" stroke="#0043E0" stroke-width="2" stroke-miterlimit="10"/>
<path d="M37.2903 35.9447C37.261 35.5834 37.3119 35.22 37.4394 34.8807C37.5668 34.5413 37.7677 34.2343 38.0276 33.9816C38.444 33.622 38.9799 33.4313 39.5299 33.447C39.829 33.4351 40.1272 33.4864 40.4051 33.5976C40.6831 33.7088 40.9344 33.8773 41.1428 34.0922C41.3598 34.3343 41.5269 34.6169 41.6344 34.9237C41.742 35.2305 41.7879 35.5556 41.7695 35.8802C41.7926 36.3776 41.6979 36.8733 41.493 37.3272C41.3134 37.6743 41.0342 37.96 40.6912 38.1475C40.337 38.3469 39.9363 38.4486 39.5299 38.4424C39.2294 38.4544 38.9298 38.4032 38.6503 38.2921C38.3709 38.1809 38.1179 38.0123 37.9078 37.7972C37.4672 37.2844 37.2455 36.6192 37.2903 35.9447ZM38.129 35.9447C38.0909 36.4353 38.2316 36.9231 38.5253 37.318C38.6499 37.4623 38.8041 37.5781 38.9775 37.6574C39.1508 37.7368 39.3392 37.7779 39.5299 37.7779C39.7206 37.7779 39.909 37.7368 40.0823 37.6574C40.2557 37.5781 40.4099 37.4623 40.5345 37.318C40.8277 36.9225 40.9714 36.436 40.94 35.9447C40.9828 35.4579 40.845 34.9724 40.5529 34.5806C40.4267 34.439 40.2719 34.3256 40.0988 34.248C39.9257 34.1704 39.7381 34.1303 39.5483 34.1303C39.3586 34.1303 39.171 34.1704 38.9979 34.248C38.8247 34.3256 38.67 34.439 38.5437 34.5806C38.2457 34.9705 38.0984 35.4549 38.129 35.9447Z" fill="#0043E0"/>
<path d="M47.9262 38.341V37.6405C47.7648 37.896 47.5398 38.1051 47.2732 38.2473C47.0065 38.3895 46.7075 38.4599 46.4054 38.4516C46.1353 38.4543 45.8679 38.3977 45.622 38.2857C45.4045 38.2076 45.2151 38.0664 45.0783 37.8801C44.9502 37.7023 44.865 37.4973 44.8294 37.2811C44.7851 37.0317 44.7665 36.7785 44.7741 36.5253V33.5668H45.5852V36.2119C45.578 36.4984 45.5934 36.785 45.6312 37.0691C45.6816 37.2706 45.7985 37.4492 45.963 37.576C46.1411 37.6996 46.3548 37.7612 46.5713 37.7511C46.8114 37.7543 47.0476 37.6905 47.2534 37.5668C47.4582 37.4553 47.6178 37.2761 47.705 37.0599C47.8098 36.7644 47.8567 36.4514 47.8432 36.1382V33.5668H48.6543V38.341H47.9262Z" fill="#0043E0"/>
<path d="M53.6682 37.6221L53.788 38.3318C53.5858 38.3809 53.3785 38.4057 53.1705 38.4055C52.9352 38.4168 52.7008 38.3693 52.4884 38.2673C52.337 38.1857 52.217 38.056 52.1474 37.8986C52.0646 37.5988 52.0304 37.2876 52.046 36.977V34.212H51.4562V33.5853H52.046V32.3779L52.8571 31.8986V33.5668H53.6682V34.1936H52.8571V36.9585C52.8352 37.1083 52.8352 37.2604 52.8571 37.4101C52.8855 37.4786 52.938 37.5343 53.0046 37.5668C53.0872 37.6085 53.1794 37.6276 53.2718 37.6221H53.6682Z" fill="#0043E0"/>
<path d="M56.1659 36.9217L56.9677 36.7926C56.9934 37.0781 57.1289 37.3424 57.3456 37.53C57.5906 37.717 57.8952 37.8087 58.2028 37.788C58.4978 37.8115 58.7916 37.7299 59.0323 37.5576C59.114 37.4942 59.1804 37.4132 59.2267 37.3207C59.2729 37.2282 59.2978 37.1265 59.2995 37.023C59.3018 36.936 59.2808 36.85 59.2387 36.7738C59.1965 36.6977 59.1348 36.6342 59.0599 36.5899C58.7939 36.4711 58.5157 36.3815 58.2304 36.3226C57.8094 36.2295 57.3964 36.1031 56.9954 35.9447C56.7824 35.8486 56.6028 35.6914 56.4793 35.4931C56.3604 35.2992 56.2996 35.0753 56.3041 34.8479C56.3028 34.6431 56.3502 34.4409 56.4424 34.2581C56.5417 34.0788 56.6803 33.9244 56.8479 33.8064C57.0049 33.6995 57.1797 33.6215 57.3641 33.576C57.5902 33.501 57.8263 33.4606 58.0645 33.4562C58.4037 33.45 58.7411 33.5062 59.0599 33.6221C59.3064 33.7026 59.5242 33.8532 59.6866 34.0553C59.8355 34.2793 59.9302 34.5349 59.9631 34.8018L59.1705 34.9032C59.1444 34.6792 59.032 34.4742 58.8571 34.3318C58.6456 34.1803 58.3888 34.1055 58.129 34.1198C57.8492 34.0979 57.5693 34.1622 57.3272 34.3041C57.2563 34.3528 57.1978 34.4172 57.1562 34.4924C57.1146 34.5676 57.0911 34.6515 57.0876 34.7373C57.074 34.8361 57.0934 34.9365 57.1429 35.023C57.2274 35.1194 57.3353 35.1924 57.4562 35.235C57.5392 35.235 57.7788 35.3364 58.1751 35.447C58.5819 35.5481 58.9821 35.6743 59.3733 35.8249C59.588 35.9128 59.7734 36.0598 59.9078 36.2488C60.0426 36.4536 60.1102 36.6952 60.1014 36.9401C60.0988 37.2132 60.0154 37.4793 59.8617 37.7051C59.6937 37.9524 59.4565 38.1448 59.1797 38.2581C58.8617 38.3909 58.5197 38.4568 58.1751 38.4516C57.6718 38.4868 57.1715 38.3504 56.7558 38.0645C56.4228 37.771 56.2122 37.3631 56.1659 36.9217Z" fill="#0043E0"/>
<path d="M62.8203 35.9447C62.791 35.5834 62.8419 35.22 62.9694 34.8807C63.0968 34.5413 63.2977 34.2343 63.5576 33.9816C63.9741 33.622 64.51 33.4313 65.0599 33.447C65.359 33.4351 65.6573 33.4864 65.9352 33.5976C66.2131 33.7088 66.4644 33.8773 66.6728 34.0922C66.8894 34.3357 67.0549 34.6203 67.1594 34.929C67.2639 35.2378 67.3053 35.5643 67.2811 35.8894C67.3042 36.3868 67.2095 36.8826 67.0046 37.3364C66.825 37.6835 66.5458 37.9692 66.2028 38.1567C65.8491 38.3573 65.448 38.4592 65.0415 38.4516C64.741 38.4636 64.4414 38.4124 64.1619 38.3013C63.8825 38.1902 63.6295 38.0216 63.4194 37.8064C62.9831 37.2885 62.768 36.6198 62.8203 35.9447ZM63.659 35.9447C63.6209 36.4353 63.7617 36.9231 64.0553 37.318C64.1782 37.4644 64.332 37.5817 64.5058 37.6614C64.6795 37.7411 64.8688 37.7812 65.0599 37.7788C65.2512 37.7818 65.4406 37.742 65.6145 37.6623C65.7883 37.5825 65.9421 37.4649 66.0645 37.318C66.3577 36.9225 66.5014 36.436 66.4701 35.9447C66.503 35.4618 66.3588 34.9834 66.0645 34.5991C65.9462 34.4449 65.7942 34.3198 65.62 34.2336C65.4459 34.1473 65.2543 34.1021 65.0599 34.1014C64.8695 34.0978 64.6807 34.1365 64.507 34.2146C64.3333 34.2927 64.1791 34.4082 64.0553 34.553C63.7573 34.9527 63.6163 35.4479 63.659 35.9447Z" fill="#0043E0"/>
<path d="M73.4101 38.341V37.6405C73.2502 37.8953 73.0267 38.104 72.7617 38.2462C72.4967 38.3884 72.1992 38.4592 71.8986 38.4516C71.6253 38.4557 71.3546 38.399 71.1059 38.2857C70.8896 38.2052 70.7009 38.0645 70.5621 37.8801C70.4341 37.7023 70.3489 37.4973 70.3133 37.2811C70.269 37.0317 70.2504 36.7784 70.258 36.5253V33.5668H71.0691V36.2119C71.0586 36.4988 71.0771 36.786 71.1244 37.0691C71.1672 37.2714 71.2818 37.4515 71.4469 37.576C71.6255 37.6984 71.8389 37.7598 72.0552 37.7511C72.2953 37.7543 72.5315 37.6905 72.7373 37.5668C72.9421 37.4553 73.1017 37.2761 73.1889 37.0599C73.2937 36.7644 73.3406 36.4514 73.3271 36.1382V33.5668H74.1382V38.341H73.4101Z" fill="#0043E0"/>
<path d="M77.4193 38.341V33.5668H78.1566V34.2857C78.2753 34.0302 78.4483 33.8038 78.6635 33.6221C78.8177 33.5145 79.001 33.4566 79.1889 33.4562C79.4833 33.4674 79.7695 33.5565 80.0184 33.7142L79.7419 34.47C79.5621 34.3576 79.3548 34.297 79.1428 34.2949C78.9733 34.2949 78.8084 34.3499 78.6728 34.4516C78.5257 34.5617 78.4188 34.7172 78.3686 34.894C78.2771 35.1926 78.2305 35.5033 78.2304 35.8156V38.341H77.4193Z" fill="#0043E0"/>
<path d="M85.6497 36.5898L86.4423 36.7004C86.3874 37.1949 86.1509 37.6514 85.7787 37.9815C85.4106 38.2985 84.9371 38.4662 84.4516 38.4516C84.1566 38.4606 83.8632 38.406 83.5912 38.2915C83.3193 38.177 83.0752 38.0053 82.8755 37.788C82.4481 37.2724 82.2338 36.613 82.2764 35.9447C82.2695 35.4802 82.3574 35.0192 82.5345 34.5898C82.6948 34.2238 82.9698 33.9197 83.3179 33.7235C83.6671 33.5284 84.0608 33.4268 84.4608 33.4285C84.918 33.4084 85.3679 33.5485 85.7327 33.8249C86.0754 34.1051 86.302 34.5024 86.3686 34.9401L85.576 35.0599C85.529 34.7823 85.3893 34.5289 85.1797 34.341C84.9894 34.1729 84.7421 34.0839 84.4884 34.0921C84.3 34.0869 84.1128 34.1239 83.9406 34.2005C83.7683 34.277 83.6154 34.3912 83.493 34.5345C83.2504 34.9549 83.1226 35.4317 83.1226 35.917C83.1226 36.4024 83.2504 36.8792 83.493 37.2995C83.6041 37.4372 83.7444 37.5483 83.9039 37.6248C84.0633 37.7014 84.2378 37.7414 84.4147 37.7419C84.71 37.751 84.9974 37.6453 85.2165 37.447C85.4537 37.2185 85.6064 36.9163 85.6497 36.5898Z" fill="#0043E0"/>
<path d="M92.4332 36.8018L93.2719 36.9124C93.1648 37.362 92.908 37.7617 92.5438 38.0461C92.1424 38.3273 91.6602 38.4697 91.1705 38.4516C90.864 38.4683 90.5574 38.4194 90.2713 38.3082C89.9852 38.1969 89.7262 38.0259 89.5115 37.8065C89.291 37.5558 89.1228 37.2636 89.0168 36.9471C88.9108 36.6305 88.869 36.296 88.894 35.9631C88.8612 35.293 89.0816 34.635 89.5115 34.1198C89.7179 33.9011 89.9685 33.7289 90.2466 33.6145C90.5246 33.5 90.8239 33.4461 91.1244 33.4562C91.4172 33.4468 91.7086 33.5003 91.9789 33.6132C92.2492 33.7261 92.4921 33.8957 92.6912 34.1106C93.1262 34.6225 93.3444 35.2837 93.2995 35.9539V36.1751H89.7327C89.7327 36.6145 89.8896 37.0394 90.1751 37.3733C90.3022 37.512 90.4578 37.6217 90.6311 37.6949C90.8045 37.768 90.9916 37.8029 91.1797 37.7972C91.4511 37.8026 91.7167 37.7184 91.9355 37.5576C92.176 37.3636 92.35 37.0994 92.4332 36.8018ZM89.7788 35.4931H92.4424C92.4351 35.1624 92.3292 34.8415 92.1382 34.5714C92.019 34.4202 91.8661 34.2989 91.6917 34.2173C91.5172 34.1357 91.3261 34.096 91.1336 34.1014C90.7886 34.1009 90.4574 34.2367 90.212 34.4793C89.9435 34.7496 89.7886 35.1123 89.7788 35.4931Z" fill="#0043E0"/>
<path d="M38.2672 25.2718V11.447H47.6128V13.0875H40.1013V17.3732H46.599V19.0046H40.1013V25.2995L38.2672 25.2718Z" fill="#0043E0"/>
<path d="M53.6589 13.3732V11.4193H55.3548V13.3732H53.6589ZM53.6589 25.2718V15.235H55.3548V25.2718H53.6589Z" fill="#0043E0"/>
<path d="M61.8157 25.2719V15.235H63.3456V16.6636C63.6887 16.1338 64.1644 15.7028 64.7253 15.4134C65.2863 15.1241 65.9132 14.9863 66.5438 15.0138C67.1158 15.0094 67.6829 15.1191 68.212 15.3364C68.661 15.5133 69.053 15.8098 69.3456 16.1935C69.6115 16.5682 69.7938 16.9957 69.8802 17.447C69.9585 17.9963 69.9893 18.5514 69.9724 19.106V25.2719H68.2765V19.1705C68.2975 18.6436 68.2289 18.1169 68.0737 17.6129C67.94 17.268 67.693 16.9787 67.3733 16.7926C67.0121 16.5848 66.601 16.4796 66.1843 16.4885C65.5059 16.4849 64.8498 16.731 64.341 17.1797C64.0356 17.5375 63.8082 17.9552 63.6733 18.4059C63.5384 18.8566 63.499 19.3304 63.5576 19.7972V25.2719H61.8157Z" fill="#0043E0"/>
<path d="M83.3271 22.046L85.0783 22.258C84.8548 23.2095 84.3114 24.0554 83.5391 24.6543C82.7019 25.2496 81.6898 25.548 80.6635 25.5023C80.0204 25.5323 79.3781 25.4273 78.7781 25.1939C78.178 24.9606 77.6335 24.6041 77.1797 24.1474C76.2647 23.0983 75.8009 21.7303 75.8893 20.341C75.8017 18.911 76.267 17.5021 77.1889 16.4055C77.6205 15.9453 78.1457 15.5829 78.7292 15.3429C79.3127 15.1028 79.9408 14.9906 80.5714 15.0138C81.1871 14.9906 81.8005 15.1004 82.3699 15.3358C82.9393 15.5712 83.4513 15.9266 83.8709 16.3778C84.7755 17.4677 85.2275 18.8632 85.1336 20.2764C85.1336 20.3778 85.1336 20.5253 85.1336 20.7281H77.6405C77.6331 21.6562 77.9603 22.556 78.5621 23.2626C78.8292 23.5482 79.1537 23.7739 79.5143 23.9248C79.875 24.0757 80.2635 24.1485 80.6543 24.1382C81.2276 24.1529 81.7902 23.9815 82.258 23.6497C82.7677 23.235 83.1404 22.6761 83.3271 22.046ZM77.7419 19.2811H83.3456C83.3207 18.5987 83.0964 17.9387 82.7004 17.3824C82.4486 17.0663 82.127 16.8127 81.7609 16.6416C81.3947 16.4705 80.9939 16.3865 80.5898 16.3963C80.2245 16.3881 79.8614 16.4541 79.5223 16.5904C79.1833 16.7266 78.8755 16.9302 78.6174 17.1889C78.0694 17.7528 77.7563 18.5041 77.7419 19.2903V19.2811Z" fill="#0043E0"/>
<path d="M90.4055 22.2765L92.0922 22.0184C92.1444 22.6161 92.425 23.1707 92.8756 23.5668C93.4065 23.9594 94.0603 24.149 94.7189 24.1014C95.3348 24.1504 95.9484 23.9807 96.4516 23.6221C96.6259 23.4923 96.768 23.3243 96.8671 23.131C96.9661 22.9376 97.0195 22.7241 97.023 22.5069C97.0289 22.323 96.9859 22.1408 96.8985 21.9789C96.8111 21.8171 96.6823 21.6812 96.5253 21.5852C95.9693 21.3267 95.3846 21.1349 94.7834 21.0138C93.8953 20.8147 93.0258 20.5403 92.1843 20.1935C91.7391 19.9981 91.362 19.6747 91.1011 19.2644C90.8402 18.8541 90.7071 18.3755 90.7189 17.8894C90.7156 17.4588 90.8202 17.0342 91.023 16.6544C91.2264 16.2856 91.5137 15.9698 91.8617 15.7327C92.1877 15.5022 92.5532 15.3335 92.9401 15.235C93.4191 15.0956 93.9159 15.0273 94.4147 15.0322C95.1211 15.0176 95.824 15.1332 96.4885 15.3733C97.0079 15.5461 97.4659 15.8663 97.8064 16.2949C98.1207 16.7582 98.3226 17.2884 98.3963 17.8433L96.7281 18.0737C96.6736 17.602 96.4392 17.1695 96.0737 16.8663C95.6269 16.546 95.0832 16.3898 94.5346 16.424C93.9505 16.3759 93.3664 16.5147 92.8664 16.8203C92.712 16.9197 92.5848 17.0561 92.4963 17.217C92.4078 17.3779 92.3608 17.5583 92.3594 17.7419C92.3606 17.9598 92.4353 18.1709 92.5714 18.341C92.7474 18.545 92.9727 18.7005 93.2258 18.7926C93.3917 18.8571 93.8894 18.9954 94.7281 19.2258C95.5832 19.4347 96.4238 19.6995 97.2442 20.0184C97.6988 20.2089 98.0868 20.5296 98.3594 20.9401C98.6467 21.3701 98.7918 21.8794 98.7742 22.3963C98.7583 22.9591 98.5755 23.5045 98.2488 23.9631C97.8795 24.4757 97.3663 24.8671 96.7742 25.0875C96.1078 25.3733 95.3885 25.5146 94.6636 25.5023C93.6053 25.576 92.553 25.2902 91.6774 24.6912C90.9702 24.0707 90.5173 23.2107 90.4055 22.2765Z" fill="#0043E0"/>
<path d="M108.35 23.7511L108.599 25.2534C108.175 25.3496 107.743 25.4021 107.309 25.4101C106.812 25.4353 106.317 25.3338 105.871 25.1152C105.551 24.9451 105.298 24.6724 105.152 24.341C104.974 23.687 104.905 23.0081 104.949 22.3317V16.5898H103.696V15.235H104.949V12.7557L106.636 11.7327V15.235H108.35V16.5898H106.636V22.4608C106.62 22.7709 106.651 23.0816 106.728 23.3824C106.789 23.521 106.893 23.637 107.023 23.7142C107.202 23.805 107.403 23.8463 107.604 23.834C107.854 23.8245 108.104 23.7967 108.35 23.7511Z" fill="#0043E0"/>
</g>
<defs>
<clipPath id="clip0">
<rect width="108.599" height="50" fill="white"/>
</clipPath>
</defs>
</svg>
