<svg width="32" height="32" viewBox="0 0 32 32" fill="none" xmlns="http://www.w3.org/2000/svg">
<path d="M31.3269 6.66389H16.64L14.7034 3.02271C14.5865 2.80296 14.3579 2.66558 14.1091 2.66558H0.673125C0.301438 2.66558 0 2.96702 0 3.33871V28.6612C0 29.0328 0.301438 29.3343 0.673125 29.3343H31.3269C31.6986 29.3343 32 29.0328 32 28.6612V7.33702C32 6.96533 31.6986 6.66389 31.3269 6.66389ZM1.34625 27.9881V4.01189H13.7046L15.6412 7.65314C15.7581 7.87283 15.9867 8.01014 16.2356 8.01014H30.6537V27.9881H1.34625V27.9881Z" fill="#0043E0"/>
<path d="M10.2087 6.67762H10.2246C10.5964 6.67762 10.8978 6.37624 10.8978 6.00449C10.8978 5.6328 10.5964 5.33137 10.2246 5.33137H10.2087C9.83702 5.33137 9.53558 5.6328 9.53558 6.00449C9.53558 6.3763 9.83702 6.67762 10.2087 6.67762Z" fill="#0043E0"/>
<path d="M8.29447 5.33115H3.33859C2.9669 5.33115 2.66547 5.63258 2.66547 6.00427C2.66547 6.37602 2.9669 6.6774 3.33859 6.6774H8.29447C8.66615 6.6774 8.96759 6.37602 8.96759 6.00427C8.96759 5.63258 8.66615 5.33115 8.29447 5.33115Z" fill="#0043E0"/>
<path d="M22.3859 12.6478C20.3383 12.0869 18.192 11.1765 16.3422 10.0845C16.1311 9.95986 15.869 9.95986 15.6578 10.0845C13.7272 11.2242 11.7503 12.0627 9.61421 12.6478C9.32165 12.7279 9.1189 12.9938 9.1189 13.297V16.5887C9.1189 20.1002 10.7399 22.4255 12.0997 23.7579C13.6659 25.2924 15.3529 26.0072 16 26.0072C16.6472 26.0072 18.3342 25.2924 19.9003 23.7579C21.2601 22.4255 22.8812 20.1002 22.8812 16.5887V13.297C22.8811 12.9938 22.6783 12.728 22.3859 12.6478ZM21.5349 16.5887C21.5349 19.5934 20.1667 21.5902 19.019 22.7361C17.6598 24.0931 16.2775 24.6282 16 24.6603C15.7225 24.6282 14.3402 24.0931 12.9811 22.7361C11.8333 21.5902 10.4651 19.5934 10.4651 16.5887V13.8054C12.4051 13.2337 14.224 12.4572 16.0003 11.4424C17.7377 12.4317 19.6344 13.2412 21.535 13.805V16.5887H21.5349Z" fill="#0043E0"/>
<path d="M13.1782 17.5379C12.9153 17.275 12.4892 17.275 12.2262 17.5379C11.9633 17.8007 11.9633 18.2269 12.2262 18.4898L14.415 20.6786C14.5465 20.81 14.7187 20.8758 14.891 20.8758C15.0632 20.8758 15.2355 20.8101 15.3669 20.6786L19.774 16.2716C20.0368 16.0087 20.0368 15.5825 19.774 15.3196C19.5111 15.0567 19.085 15.0568 18.822 15.3196L14.8909 19.2507L13.1782 17.5379Z" fill="#0043E0"/>
<path d="M23.7905 25.3228H23.7745C23.4028 25.3228 23.1014 25.6242 23.1014 25.996C23.1014 26.3676 23.4028 26.6691 23.7745 26.6691H23.7905C24.1622 26.6691 24.4636 26.3676 24.4636 25.996C24.4636 25.6242 24.1622 25.3228 23.7905 25.3228Z" fill="#0043E0"/>
<path d="M28.6612 25.3227H25.7048C25.3331 25.3227 25.0317 25.6241 25.0317 25.9958C25.0317 26.3675 25.3331 26.6689 25.7048 26.6689H28.6612C29.0329 26.6689 29.3343 26.3675 29.3343 25.9958C29.3343 25.6241 29.0329 25.3227 28.6612 25.3227Z" fill="#0043E0"/>
</svg>
