<svg width="32" height="32" viewBox="0 0 32 32" fill="none" xmlns="http://www.w3.org/2000/svg">
<path d="M29.6562 6.625H22.5625V4.28125C22.5625 2.98888 21.5111 1.9375 20.2188 1.9375H11.7812C10.4889 1.9375 9.4375 2.98888 9.4375 4.28125V7.09375C9.4375 7.35269 9.64738 7.5625 9.90625 7.5625H29.6562C30.4316 7.5625 31.0625 8.19338 31.0625 8.96875V20.2188C31.0625 20.9941 30.4316 21.625 29.6562 21.625H20.1375C20.1896 21.4782 20.2188 21.3207 20.2188 21.1562C20.2188 20.5452 19.8268 20.0241 19.2812 19.8306V15.5312C19.2812 15.2723 19.0714 15.0625 18.8125 15.0625H13.1875C12.9286 15.0625 12.7188 15.2723 12.7188 15.5312V19.8306C12.1732 20.0241 11.7812 20.5452 11.7812 21.1562C11.7812 21.3207 11.8104 21.4782 11.8625 21.625H2.34375C1.56831 21.625 0.9375 20.9941 0.9375 20.2188V8.96875C0.9375 8.19338 1.56831 7.5625 2.34375 7.5625H8.03125C8.29012 7.5625 8.5 7.35269 8.5 7.09375C8.5 6.83481 8.29012 6.625 8.03125 6.625H2.34375C1.05138 6.625 0 7.67637 0 8.96875V20.2188C0 20.9839 0.368625 21.6644 0.9375 22.0925V27.7188C0.9375 29.0111 1.98888 30.0625 3.28125 30.0625H28.7188C30.0111 30.0625 31.0625 29.0111 31.0625 27.7188V22.0925C31.6314 21.6645 32 20.9839 32 20.2188V8.96875C32 7.67637 30.9486 6.625 29.6562 6.625ZM19.75 6.625H12.25V5.6875H19.75V6.625ZM21.625 6.625H20.6875V5.21875C20.6875 4.95981 20.4777 4.75 20.2188 4.75H11.7812C11.5224 4.75 11.3125 4.95981 11.3125 5.21875V6.625H10.375V4.28125C10.375 3.50587 11.0058 2.875 11.7812 2.875H20.2188C20.9941 2.875 21.625 3.50587 21.625 4.28125V6.625ZM18.3438 16V19.75H13.6562V16H18.3438ZM12.7188 21.1562C12.7188 20.8978 12.929 20.6875 13.1875 20.6875H18.8125C19.071 20.6875 19.2812 20.8978 19.2812 21.1562C19.2812 21.4147 19.071 21.625 18.8125 21.625H13.1875C12.929 21.625 12.7188 21.4147 12.7188 21.1562ZM13.6562 22.5625H18.3438V24.9062C18.3438 26.1986 17.2924 27.25 16 27.25C14.7076 27.25 13.6562 26.1986 13.6562 24.9062V22.5625ZM1.875 27.7188V22.5153C2.0265 22.5462 2.18325 22.5625 2.34375 22.5625H4.6875V27.7188C4.6875 28.246 4.86256 28.733 5.1575 29.125H3.28125C2.50581 29.125 1.875 28.4941 1.875 27.7188ZM7.03125 29.125C6.25581 29.125 5.625 28.4941 5.625 27.7188V22.5625H12.7188V24.9062C12.7188 26.7155 14.1907 28.1875 16 28.1875C17.8092 28.1875 19.2812 26.7155 19.2812 24.9062V22.5625H26.375V27.7188C26.375 28.4941 25.7441 29.125 24.9688 29.125H7.03125ZM30.125 27.7188C30.125 28.4941 29.4941 29.125 28.7188 29.125H26.8425C27.1374 28.733 27.3125 28.246 27.3125 27.7188V22.5625H29.6562C29.8167 22.5625 29.9735 22.5462 30.125 22.5153V27.7188Z" fill="#0043E0"/>
<path d="M16 26.3125C16.7754 26.3125 17.4062 25.6816 17.4062 24.9062C17.4062 24.1309 16.7754 23.5 16 23.5C15.2246 23.5 14.5938 24.1309 14.5938 24.9062C14.5938 25.6816 15.2246 26.3125 16 26.3125ZM16 24.4375C16.2585 24.4375 16.4688 24.6478 16.4688 24.9062C16.4688 25.1647 16.2585 25.375 16 25.375C15.7415 25.375 15.5312 25.1647 15.5312 24.9062C15.5312 24.6478 15.7415 24.4375 16 24.4375Z" fill="#0043E0"/>
</svg>
