<svg width="32" height="32" viewBox="0 0 32 32" fill="none" xmlns="http://www.w3.org/2000/svg">
<path d="M21.6515 12.9625L21.301 12.026C20.9875 12.1435 20.6695 12.251 20.3555 12.346L20.6445 13.303C20.979 13.202 21.318 13.0875 21.6515 12.9625Z" fill="#0043E0"/>
<path d="M18.5 15.14V13.796C18.871 13.7365 19.2435 13.6635 19.613 13.5785L19.3875 12.604C18.9055 12.716 18.417 12.804 17.9355 12.8675L17.5 12.925V15.1405C17.5 15.2745 17.503 15.408 17.51 15.541L18.509 15.49C18.503 15.3735 18.5 15.2575 18.5 15.14Z" fill="#0043E0"/>
<path d="M9.5 6.5C7.8455 6.5 6.5 7.8455 6.5 9.5C6.5 11.1545 7.8455 12.5 9.5 12.5C11.1545 12.5 12.5 11.1545 12.5 9.5C12.5 7.8455 11.1545 6.5 9.5 6.5ZM9.5 11.5C8.397 11.5 7.5 10.603 7.5 9.5C7.5 8.397 8.397 7.5 9.5 7.5C10.603 7.5 11.5 8.397 11.5 9.5C11.5 10.603 10.603 11.5 9.5 11.5Z" fill="#0043E0"/>
<path d="M22.739 9.394L22.5005 9.2645L22.262 9.394C20.348 10.431 18.1815 10.9865 15.997 10.9995L15.5 11.0025V15.14C15.5 19.4785 18.2445 23.3875 22.3295 24.8665L22.5 24.928L22.6705 24.8665C26.7555 23.3875 29.5 19.4785 29.5 15.14V11.0025L29.003 10.9995C26.82 10.9865 24.654 10.431 22.739 9.394ZM28.5 15.14C28.5 18.9985 26.0965 22.481 22.5 23.8625C18.9035 22.4805 16.5 18.998 16.5 15.14V11.9875C18.589 11.902 20.6485 11.357 22.5005 10.399C24.353 11.357 26.412 11.902 28.5 11.9875V15.14Z" fill="#0043E0"/>
<path d="M20.5 15.793L18.293 18L21.5 21.207L27.707 15L25.5 12.793L21.5 16.793L20.5 15.793ZM26.293 15L21.5 19.793L19.707 18L20.5 17.207L21.5 18.207L25.5 14.207L26.293 15Z" fill="#0043E0"/>
<path d="M31.5 9H29.0855C26.8385 9 24.663 8.3415 22.7745 7.082L22.481 6.9115L22.2055 7.095C21.067 7.8545 19.8135 8.3925 18.5 8.6995V7.604L17.1825 7.294C17.0165 6.7145 16.785 6.1565 16.492 5.628L17.205 4.4765L14.5235 1.795L13.372 2.508C12.8435 2.215 12.2855 1.9835 11.706 1.8175L11.396 0.5H7.604L7.294 1.8175C6.7145 1.9835 6.1565 2.215 5.628 2.508L4.4765 1.795L1.795 4.4765L2.508 5.628C2.215 6.1565 1.9835 6.7145 1.8175 7.294L0.5 7.604V11.396L1.8175 11.706C1.9835 12.2855 2.215 12.8435 2.508 13.372L1.795 14.5235L4.4765 17.205L5.628 16.492C6.1565 16.785 6.7145 17.0165 7.294 17.1825L7.604 18.5H11.396L11.706 17.1825C12.2855 17.0165 12.8435 16.785 13.372 16.492L13.6025 16.6345C13.8705 18.796 14.7015 20.8235 15.975 22.5245L14.293 28.692L16.762 28.0745L18.6305 31.189L20.307 26.1595C20.959 26.489 21.6425 26.768 22.359 26.979L22.5 27.021L22.641 26.9795C23.3575 26.7685 24.041 26.4895 24.693 26.16L26.3695 31.1895L28.238 28.075L30.707 28.6925L29.025 22.525C30.5885 20.436 31.5 17.859 31.5 15.14V9ZM13.383 15.323L13.1215 15.482C12.514 15.85 11.858 16.1225 11.17 16.2905L10.872 16.3635L10.604 17.5H8.396L8.1285 16.3635L7.8305 16.2905C7.1425 16.1225 6.4865 15.85 5.879 15.482L5.6175 15.323L4.6245 15.9375L3.063 14.376L3.6775 13.383L3.5185 13.1215C3.1505 12.514 2.878 11.858 2.71 11.17L2.637 10.872L1.5 10.604V8.396L2.6365 8.1285L2.7095 7.8305C2.8775 7.1425 3.15 6.4865 3.518 5.879L3.677 5.6175L3.0625 4.624L4.624 3.0625L5.617 3.677L5.8785 3.518C6.486 3.15 7.142 2.8775 7.83 2.7095L8.128 2.6365L8.396 1.5H10.604L10.8715 2.6365L11.1695 2.7095C11.8575 2.8775 12.5135 3.15 13.121 3.518L13.3825 3.677L14.3755 3.0625L15.937 4.624L15.3225 5.617L15.4815 5.8785C15.8495 6.486 16.122 7.142 16.29 7.83L16.363 8.128L17.5 8.396V8.887C16.9775 8.96 16.4485 9 15.9145 9H15.4745C15.219 5.925 12.64 3.5 9.5 3.5C6.1915 3.5 3.5 6.1915 3.5 9.5C3.5 12.8085 6.1915 15.5 9.5 15.5C10.99 15.5 12.41 14.9405 13.5 13.966V15.1405C13.5 15.2285 13.509 15.315 13.511 15.4025L13.383 15.323ZM13.5 9V12.4895C12.5565 13.7485 11.0755 14.5 9.5 14.5C6.743 14.5 4.5 12.257 4.5 9.5C4.5 6.743 6.743 4.5 9.5 4.5C12.088 4.5 14.223 6.477 14.4745 9H13.5ZM18.3695 28.8105L17.238 26.925L15.707 27.3075L16.7565 23.4585C17.5325 24.309 18.4265 25.053 19.4185 25.663L18.3695 28.8105ZM29.293 27.3075L27.762 26.925L26.6305 28.8105L25.5815 25.663C26.5735 25.053 27.4675 24.309 28.2435 23.4585L29.293 27.3075ZM30.5 15.14C30.5 20.087 27.218 24.5225 22.5 25.978C17.782 24.5225 14.5 20.087 14.5 15.14V10H15.9145C18.251 10 20.516 9.3455 22.4995 8.096C24.4735 9.343 26.744 10 29.0855 10H30.5V15.14Z" fill="#0043E0"/>
</svg>
