<svg width="32" height="32" viewBox="0 0 32 32" fill="none" xmlns="http://www.w3.org/2000/svg">
<g clip-path="url(#clip0)">
<path d="M31.9143 14.3862C31.5364 10.7527 29.9026 7.32617 27.3145 4.73779C24.2996 1.7229 20.2815 0.0625 16.0005 0.0625C11.7192 0.0625 7.70117 1.7229 4.68628 4.73779C1.66431 7.76001 0 11.7781 0 16.0518C0 20.3257 1.66431 24.3438 4.68652 27.3657C7.7085 30.3879 11.7266 32.0523 16.0005 32.0523C16.2629 32.0523 16.4756 31.8394 16.4756 31.5769C16.4756 31.3145 16.2629 31.1018 16.0005 31.1018C11.9805 31.1018 8.20117 29.5364 5.35864 26.6936C2.51611 23.8511 0.95044 20.0718 0.95044 16.0518C0.95044 12.032 2.51587 8.25244 5.3584 5.40991C8.19385 2.57446 11.9731 1.01294 16.0005 1.01294C20.0276 1.01294 23.8069 2.57446 26.6423 5.40991C29.0767 7.84448 30.6133 11.0671 30.969 14.4846C31.3196 17.8538 30.5181 21.2739 28.7117 24.1152C28.3318 24.7129 27.7119 25.0999 27.0107 25.177C26.4768 25.2358 25.9507 25.1069 25.5112 24.8201L26.5964 23.7346C27.2427 23.0884 27.2427 22.0369 26.5964 21.3909L26.1785 20.9727C25.9927 20.7871 25.6919 20.7871 25.5064 20.9727C25.3206 21.1582 25.3206 21.459 25.5064 21.6448L25.9243 22.063C26.2 22.3386 26.2 22.7871 25.9243 23.0625L25.0276 23.9595L20.8088 19.7407L21.7061 18.8438C21.9815 18.5681 22.4299 18.5681 22.7056 18.8435L23.9226 20.0608C24.1082 20.2466 24.4089 20.2466 24.5947 20.061C24.7803 19.8752 24.7803 19.5745 24.5947 19.3889L23.3777 18.1716C22.7315 17.5254 21.6799 17.5254 21.0337 18.1716L19.4285 19.7769C18.7844 20.4209 17.7361 20.4209 17.092 19.7769L12.2754 14.9602C11.9634 14.6482 11.7915 14.2332 11.7915 13.7918C11.7915 13.3506 11.9634 12.9355 12.2751 12.6238L12.6428 12.2561C12.6443 12.2546 12.646 12.2534 12.6475 12.2517C12.6492 12.2502 12.6504 12.2485 12.6519 12.2471L13.8806 11.0183C14.5266 10.3721 14.5266 9.3208 13.8806 8.67456L10.6611 5.45557C10.0149 4.80957 8.96362 4.80957 8.31738 5.45557L7.08643 6.68677C7.0857 6.68726 7.08496 6.68799 7.08423 6.68848C7.0835 6.68945 7.08277 6.69043 7.08179 6.69141C5.68677 8.08765 4.91846 9.94312 4.91846 11.917C4.91846 13.8921 5.68775 15.749 7.08447 17.1455L8.73779 18.7986C8.92334 18.9844 9.22412 18.9844 9.40967 18.7986C9.59546 18.613 9.59546 18.3123 9.40967 18.1267L7.75659 16.4734C6.53955 15.2566 5.86914 13.6384 5.86914 11.9172C5.86914 10.3555 6.42114 8.87842 7.43262 7.70899L11.6392 11.9155L11.6033 11.9514C10.5884 12.9663 10.5884 14.6174 11.6033 15.6323L16.4199 20.449C16.9272 20.9565 17.5938 21.2102 18.2603 21.2102C18.9268 21.21 19.5933 20.9565 20.1003 20.4492L20.1367 20.4128L24.3425 24.6187C23.6387 25.2256 22.8101 25.6765 21.9202 25.9324C21.3328 26.1011 20.7339 26.1831 20.1394 26.1831C18.4522 26.1831 16.8037 25.5208 15.5789 24.2954L11.0256 19.7424C10.8401 19.5569 10.5391 19.5569 10.3535 19.7424C10.168 19.928 10.168 20.2288 10.3535 20.4146L14.9067 24.9675C16.3125 26.3738 18.2034 27.1338 20.1397 27.1338C20.8213 27.1338 21.509 27.0393 22.1826 26.846C23.135 26.5723 24.0261 26.104 24.7966 25.478C25.4546 25.9807 26.2778 26.2141 27.1148 26.1221C28.104 26.0132 28.9785 25.4678 29.5139 24.6252C31.4346 21.6038 32.2871 17.9675 31.9143 14.3862ZM8.09278 7.02466L8.98975 6.12769C9.26538 5.85205 9.71362 5.85205 9.98926 6.12769L13.2085 9.34644C13.4841 9.62207 13.4841 10.0706 13.2085 10.3462L12.3115 11.2432L8.09278 7.02466Z" fill="#0043E0"/>
<path d="M17.3701 10.9231C19.2427 10.9231 20.7661 12.4465 20.7661 14.3191C20.7661 14.5815 20.9788 14.7944 21.2412 14.7944C21.5037 14.7944 21.7166 14.5815 21.7166 14.3191C21.7166 11.9223 19.7666 9.97263 17.3701 9.97263C17.1077 9.97263 16.8948 10.1853 16.8948 10.4477C16.8948 10.7104 17.1077 10.9231 17.3701 10.9231Z" fill="#0043E0"/>
<path d="M17.3701 8.53759C20.5581 8.53759 23.1516 11.1311 23.1516 14.3191C23.1516 14.5815 23.3643 14.7944 23.6267 14.7944C23.8892 14.7944 24.1021 14.5815 24.1021 14.3191C24.1021 10.6069 21.082 7.58715 17.3701 7.58715C17.1077 7.58715 16.8948 7.7998 16.8948 8.06249C16.8948 8.32494 17.1077 8.53759 17.3701 8.53759Z" fill="#0043E0"/>
<path d="M17.3701 6.17649C21.8599 6.17649 25.5127 9.82908 25.5127 14.3191C25.5127 14.5815 25.7256 14.7944 25.988 14.7944C26.2505 14.7944 26.4631 14.5815 26.4631 14.3191C26.4631 9.30515 22.384 5.22605 17.3701 5.22605C17.1077 5.22605 16.8948 5.4387 16.8948 5.70115C16.8948 5.9636 17.1077 6.17649 17.3701 6.17649Z" fill="#0043E0"/>
</g>
<defs>
<clipPath id="clip0">
<rect width="32" height="32" fill="white"/>
</clipPath>
</defs>
</svg>
